<svg xmlns="http://www.w3.org/2000/svg" width="400" height="163.954" viewBox="0 0 400 163.954">
  <path id="Levi_s" data-name="Levi&apos;s" d="M352.911,10.01a8.035,8.035,0,0,0,2.675-.619,4.124,4.124,0,0,0,1.867-1.576,5.372,5.372,0,0,0,.7-2.969,4.712,4.712,0,0,0-.622-2.567A4.291,4.291,0,0,0,355.915.811a7.024,7.024,0,0,0-2.273-.69c-.368-.056-.734-.092-1.1-.121h-8.026V10.118h5.2C350.848,10.118,351.909,10.084,352.911,10.01ZM334.076,28.592a22.108,22.108,0,0,0,7.185,4.947,22.284,22.284,0,0,0,8.972,1.794,21.887,21.887,0,0,0,8.872-1.794,22.225,22.225,0,0,0,7.149-4.947,22.9,22.9,0,0,0,4.765-7.438,24.919,24.919,0,0,0,1.724-9.35,24.221,24.221,0,0,0-1.724-9.16A24.016,24.016,0,0,0,369.732,0h-7.8a9.829,9.829,0,0,1,1.205,5.063q0,4.324-2.421,6.337a10.853,10.853,0,0,1-6.01,2.386l9.165,14.145h-5.355L349.8,14.152h-5.278v13.78h-4.98V0H330.6a23.9,23.9,0,0,0-1.284,2.646,24.21,24.21,0,0,0-1.723,9.16,24.881,24.881,0,0,0,1.723,9.35A22.812,22.812,0,0,0,334.076,28.592ZM140.938,54.819c-6.947,0-10.627,5.426-10.7,10.98h22.331C152.564,59.251,148.421,54.819,140.938,54.819ZM375.012,0c.168.346.354.676.511,1.032a26.446,26.446,0,0,1,2.2,10.772,27.058,27.058,0,0,1-2.2,10.966,27.823,27.823,0,0,1-5.937,8.714,26.734,26.734,0,0,1-8.721,5.756,27.656,27.656,0,0,1-10.634,2.053,27.854,27.854,0,0,1-10.658-2.053,27.018,27.018,0,0,1-8.8-5.756,27.617,27.617,0,0,1-5.969-8.714A27.035,27.035,0,0,1,322.6,11.8a26.377,26.377,0,0,1,2.2-10.772c.157-.356.344-.686.512-1.032H0L38.463,163.955c80.754-51.933,158.365-2.025,161.486-.121h.008a.134.134,0,0,1,.024-.014h.04a.2.2,0,0,1,.023.014h.013c3.116-1.9,80.731-51.812,161.484.121L400,0ZM105.694,99.539H53.12V44.779H76.756v39.86h28.938ZM176.406,76.82H130.274c0,7.128,6.034,12.5,14.076,12.5,4.782,0,9.138-1.582,12.216-5.862h18.4c-6.013,13.816-17.676,17.745-33.576,17.745-20.678,0-35.3-11.2-35.3-28.933,0-18.943,14.4-28.936,35.3-28.936,23.379,0,35.1,15.15,35.1,29.732A27.411,27.411,0,0,1,176.406,76.82ZM219.2,99.626H199.28L169.54,44.734h26.839L213.445,78.1l.47,1.006.428-1.006L230.3,44.732H246.42Zm52.527-.107h-22.8V44.631h22.8ZM288.854,51.51l-6.868,7.47H279.13l3.148-8.145h-6.292V39.974h12.868Zm29.92,49.572c-24.361,0-28.8-14.074-28.8-17.561h17.64c0,2.049,2.776,4.506,5.118,5.5a15.453,15.453,0,0,0,6.085.988c4.967,0,9.042-1.205,9.042-4.089,0-3.512-4.173-4.291-8.776-4.952-12.526-1.806-30.082-3.91-30.082-17.923,0-13.07,14.271-19.722,29.42-19.722,24.253,0,30.682,13.435,30.682,17.326H331.18a5.86,5.86,0,0,0-3.329-4.667,16.132,16.132,0,0,0-7.056-1.713c-6.7,0-10.468,1.394-10.468,4.463,0,2.508,3.4,3.751,8.276,4.588,12.732,2.186,32.285,2.942,32.285,18.438C350.888,89.634,344.072,101.082,318.773,101.082Z" fill="#c51230"/>
</svg>
