<svg xmlns="http://www.w3.org/2000/svg" width="400" height="85.105" viewBox="0 0 400 85.105">
  <g id="_118_Razorpay" data-name="118 Razorpay" transform="translate(0 0)">
    <path id="Path_944" data-name="Path 944" d="M166.324,49.894q2-7.467-1.651-11.426t-12.758-3.986h-23.27L114.617,87h11.266l5.673-21.259H139a8.079,8.079,0,0,1,3.942.806,3.632,3.632,0,0,1,1.7,2.9L146.676,87h12.075L156.78,70.692c-.391-3.64-2.068-5.784-4.981-6.431a21.41,21.41,0,0,0,9.34-5.386A19.368,19.368,0,0,0,166.324,49.894Zm-10.787.186a8.335,8.335,0,0,1-3.676,5.208c-1.776,1.116-4.368,1.665-7.662,1.665H133.741l3.675-13.721h10.468c3.285,0,5.54.558,6.783,1.665S156.177,47.759,155.537,50.08Z" transform="translate(-60.353 -18.156)" fill="#0c2651"/>
    <path id="Path_945" data-name="Path 945" d="M254.394,65.132l-1.43,5.326a8.309,8.309,0,0,0-3.551-4.581,11.889,11.889,0,0,0-6.561-1.687,18.575,18.575,0,0,0-9.215,2.45,24.357,24.357,0,0,0-7.733,7.013,30.652,30.652,0,0,0-4.857,10.306,21.892,21.892,0,0,0-.622,10.191,11.008,11.008,0,0,0,4.031,6.791,12.735,12.735,0,0,0,7.991,2.362,17.668,17.668,0,0,0,13.424-6.134l-1.474,5.557H255.38l10.015-37.594ZM249.4,83.774a17.022,17.022,0,0,1-4.368,8.131,9.9,9.9,0,0,1-7.1,2.823c-2.8,0-4.679-.888-5.691-2.779s-1.039-4.527-.115-7.989a17.327,17.327,0,0,1,4.439-8.2,10.034,10.034,0,0,1,7.183-2.956c2.735,0,4.6.95,5.558,2.841s1.057,4.563.116,8.123Z" transform="translate(-116.05 -33.871)" fill="#0c2651"/>
    <path id="Path_946" data-name="Path 946" d="M352.006,66.244H320.372l-2.335,8.77h18.414L312.239,96.133l-2.068,7.75h32.672l2.335-8.77H325.424l24.611-21.42Z" transform="translate(-163.543 -34.957)" fill="#0c2651"/>
    <path id="Path_947" data-name="Path 947" d="M432.238,66.508a18.035,18.035,0,0,0-9.669-2.361,26,26,0,0,0-11.053,2.361,24.129,24.129,0,0,0-8.656,6.809,27.582,27.582,0,0,0-5.141,10.351,19.891,19.891,0,0,0-.373,10.35,11.265,11.265,0,0,0,5.034,6.818,18.357,18.357,0,0,0,9.766,2.353,25.522,25.522,0,0,0,10.929-2.353,23.873,23.873,0,0,0,8.612-6.818,27.52,27.52,0,0,0,5.15-10.35,19.788,19.788,0,0,0,.364-10.351A11.142,11.142,0,0,0,432.238,66.508Zm-6.41,17.141c-.985,3.693-2.433,6.462-4.386,8.291a9.883,9.883,0,0,1-7.005,2.725q-8.611,0-5.673-11.016A16.851,16.851,0,0,1,413.2,75.4a10.024,10.024,0,0,1,7.1-2.778c2.735,0,4.6.888,5.558,2.778S426.8,80,425.828,83.649Z" transform="translate(-209.237 -33.844)" fill="#0c2651"/>
    <path id="Path_948" data-name="Path 948" d="M686.051,65.1l-1.429,5.326a8.309,8.309,0,0,0-3.551-4.581,11.863,11.863,0,0,0-6.561-1.713,18.566,18.566,0,0,0-9.225,2.477,24.39,24.39,0,0,0-7.742,7.013,30.832,30.832,0,0,0-4.857,10.306,22.128,22.128,0,0,0-.621,10.191,11.006,11.006,0,0,0,4.031,6.791,12.84,12.84,0,0,0,8.088,2.362,17.581,17.581,0,0,0,7.218-1.58,17.334,17.334,0,0,0,6.082-4.554L676.01,102.7h10.982L697.016,65.1Zm-5.016,18.642a17.007,17.007,0,0,1-4.359,8.131,9.96,9.96,0,0,1-7.1,2.823c-2.806,0-4.687-.888-5.7-2.779s-1.03-4.527-.115-7.989a17.4,17.4,0,0,1,4.439-8.2,10.067,10.067,0,0,1,7.191-2.956q4.1,0,5.558,2.841c1.03,1.838,1.056,4.563.089,8.123Z" transform="translate(-343.716 -33.843)" fill="#0c2651"/>
    <path id="Path_949" data-name="Path 949" d="M517.508,75.353l2.806-10.235a8.355,8.355,0,0,0-3.773-.737,14.827,14.827,0,0,0-7.245,1.9,15.775,15.775,0,0,0-5.132,4.492l1.447-5.513H494.638l-10.1,37.594h11.133l5.23-19.627a12.611,12.611,0,0,1,4.093-6.72,11.383,11.383,0,0,1,7.387-2.406A10.956,10.956,0,0,1,517.508,75.353Z" transform="translate(-255.474 -33.971)" fill="#0c2651"/>
    <path id="Path_950" data-name="Path 950" d="M585.555,66.757a12.2,12.2,0,0,0-7.937-2.494,17.544,17.544,0,0,0-7.99,1.935,16.649,16.649,0,0,0-6.215,5.282l.044-.257,1.873-6.028h-10.92l-2.788,10.448a1.746,1.746,0,0,1-.089.355l-11.453,43.054h11.186l5.78-21.7a7.706,7.706,0,0,0,3.551,4.536,12.352,12.352,0,0,0,6.6,1.633,19.36,19.36,0,0,0,9.286-2.344,23.087,23.087,0,0,0,7.662-6.827,30.585,30.585,0,0,0,4.767-10.235,22.83,22.83,0,0,0,.675-10.342A11.727,11.727,0,0,0,585.555,66.757Zm-7.91,17.186a16.742,16.742,0,0,1-4.342,7.989,10,10,0,0,1-7.1,2.77c-2.752,0-4.616-.95-5.6-2.823s-1.039-4.572-.071-8.131a17.018,17.018,0,0,1,4.439-8.176,9.986,9.986,0,0,1,7.1-2.841c2.664,0,4.519.994,5.487,2.956S578.586,80.427,577.645,83.943Z" transform="translate(-284.776 -33.946)" fill="#0c2651"/>
    <path id="Path_951" data-name="Path 951" d="M790.5,63.6H778.957l-1.775,3.711c-.142.186-.276.373-.435.6l-.186.3L762.354,88.083l-2.947-23.231H747.758l5.922,35.632-13.1,18.225H751.8l3.241-4.625c.1-.142.2-.258.284-.408l3.791-5.406.124-.142,16.931-24.154Z" transform="translate(-390.499 -33.603)" fill="#0c2651"/>
    <path id="Path_952" data-name="Path 952" d="M50.63,22.335,47.257,34.62,66.292,22.272,53.862,68.957H66.478L84.848,0Z" transform="translate(-24.883 0)" fill="#3395ff"/>
    <path id="Path_953" data-name="Path 953" d="M5.238,81.585,0,101.221H25.88L36.472,61.275Z" transform="translate(0 -32.338)" fill="#0c2651"/>
  </g>
</svg>
